<?xml version="1.0" encoding="utf-8"?>
<!-- Generator: Adobe Illustrator 22.0.1, SVG Export Plug-In . SVG Version: 6.00 Build 0)  -->
<svg version="1.1" id="Layer_1" xmlns="http://www.w3.org/2000/svg" xmlns:xlink="http://www.w3.org/1999/xlink" x="0px" y="0px"
	 viewBox="0 0 1948.8 397.5" style="enable-background:new 0 0 1948.8 397.5;" xml:space="preserve">
<style type="text/css">
	.st0{fill:#FFFFFF;}
	.st1{fill:url(#Path_2_1_);}
	.st2{fill:url(#Path_6_1_);}
	.st3{fill:url(#Path_8_1_);}
	.st4{fill:url(#Path_233_1_);}
	.st5{fill:url(#Path_234_1_);}
	.st6{fill:none;}
	.st7{font-family:'ProximaNova-Regular';}
	.st8{font-size:51px;}
	.st9{font-size:36px;}
</style>
<g id="Group_138" transform="translate(3099 -4734)">
	<path id="Path_1" class="st0" d="M-3098.6,4822.1c0,0,307.1-0.5,316,0s35.8,32,44.6,42.8s27.9,30.5,51.7,31.1s1097.1-0.2,1121.7,0
		s48.2-25,57.8-37.7c9.6-12.7,25.3-38.5,45.1-38.4s310.4,0,310.4,0v-7.4c0,0-298.6,0.5-310.4,0s-26.6-14.6-34.7-24.7
		s-33.6-49.9-68.2-51.9s-1105-1.7-1121.7-1.7s-43.7,19.8-55.5,34.9c-11.9,15.1-31.9,40.6-42.3,42s-314.4,0-314.4,0v11H-3098.6z"/>
	
		<linearGradient id="Path_2_1_" gradientUnits="userSpaceOnUse" x1="-4864.083" y1="29.8907" x2="-4864.083" y2="30.8914" gradientTransform="matrix(1300.7969 0 0 150.2949 6325059 247.7727)">
		<stop  offset="0" style="stop-color:#3E3E3E;stop-opacity:0.922"/>
		<stop  offset="1" style="stop-color:#09004B"/>
	</linearGradient>
	<path id="Path_2" class="st1" d="M-2775.7,4815.1c7.6-4.3,28.9-25.8,40.5-42.7c11.6-16.8,38.6-32.2,48-32.2s1113.7,0.5,1113.7,0.5
		s13.4-1.2,21.8,2.4s31.1,17.1,50.8,47.8c7.3,10.6,26,23.8,26,23.8s-19.2,16.8-27.1,27.1c-7.9,10.3-13.1,21.4-25.9,30.3
		s-13.4,18.4-50.4,18.4h-1095.5c0,0-4.4,0.2-8.3,0c-4-0.2-27.9-4-40-17.5S-2764.3,4822.7-2775.7,4815.1z"/>
	<path id="Path_3" class="st0" d="M-3098.6,4977.3v-6.8h347.4c0,0,32.2-40.4,43.9-40.6c11.7-0.3,160.2,0,160.2,0h255.8
		c0,0,88.6,0.4,96.1,0s17.9,8.8,30,21.8s16.5,18.6,16.5,18.6h23v8.8h-23c0,0-6.7,5-9,8.9c-2.2,3.9-22.8,31-35.7,31.2
		s-247.7,0-247.7,0h-260.4c0,0-9.2,0.3-16.4-5.7c-7.1-6-33.3-35.7-33.3-35.7h-9.4L-3098.6,4977.3z"/>
	<path id="Path_5" class="st0" d="M-3098.6,5089.4v-6.8h347.4c0,0,32.2-40.4,43.9-40.6c11.7-0.3,160.2,0,160.2,0h255.8
		c0,0,88.6,0.4,96.1,0s17.9,8.8,30,21.8s16.5,18.6,16.5,18.6h23v8.8h-23c0,0-6.7,5-9,8.9c-2.2,3.9-22.8,31-35.7,31.2
		s-247.7,0-247.7,0h-260.4c0,0-9.2,0.3-16.4-5.7c-7.1-6-33.3-35.7-33.3-35.7h-9.4L-3098.6,5089.4z"/>
	
		<linearGradient id="Path_6_1_" gradientUnits="userSpaceOnUse" x1="-4868.1265" y1="57.4166" x2="-4868.1265" y2="58.4161" gradientTransform="matrix(594.101 0 0 78.2435 2889709.25 553.8026)">
		<stop  offset="0" style="stop-color:#3E3E3E;stop-opacity:0.922"/>
		<stop  offset="1" style="stop-color:#09004B"/>
	</linearGradient>
	<path id="Path_6" class="st2" d="M-2746.6,5084.2c0,0,28.9-33.5,34-35.5s3.4-2.3,3.4-2.3h511.6c0,0,7.7-0.2,13,4.5
		c5.2,4.7,32,32.7,32,32.7v4.3c0,0-23.9,26.1-29.1,30.7c-5.2,4.5-7,5.8-15.1,5.8h-329.5l-178.2,0.2c0,0-11.2-3.9-17.1-10.3
		s-25.1-26.6-25.1-26.6L-2746.6,5084.2z"/>
	<path id="Path_7" class="st0" d="M-1151.3,4977.2v-6.9h-348.6c0,0-32.3-40.5-44-40.8s-160.7,0-160.7,0h-256.6c0,0-88.9,0.4-96.4,0
		s-18,8.9-30.1,21.9s-16.5,18.6-16.5,18.6h-23v8.8h23c0,0,6.8,5,9,8.9s22.9,31.1,35.8,31.3c12.9,0.2,248.5,0,248.5,0h261.2
		c0,0,9.2,0.3,16.4-5.7s33.4-35.8,33.4-35.8h9.4L-1151.3,4977.2z"/>
	
		<linearGradient id="Path_8_1_" gradientUnits="userSpaceOnUse" x1="-4868.1025" y1="57.2311" x2="-4868.1025" y2="58.2311" gradientTransform="matrix(596.0139 0 0 78.4985 2899654.5 441.5422)">
		<stop  offset="0" style="stop-color:#3E3E3E;stop-opacity:0.922"/>
		<stop  offset="1" style="stop-color:#09004B"/>
	</linearGradient>
	<path id="Path_8" class="st3" d="M-1504.4,4972c0,0-29-33.6-34.1-35.6s-3.4-2.3-3.4-2.3h-513.3c0,0-7.8-0.2-13,4.5
		s-32.2,32.9-32.2,32.9v4.3c0,0,24,26.2,29.2,30.8c5.2,4.6,7,5.8,15.1,5.8h330.5l178.8,0.2c0,0,11.2-3.9,17.2-10.3
		s25.2-26.7,25.2-26.7L-1504.4,4972z"/>
	<path id="Path_9" class="st0" d="M-1151.3,5089.5v-6.9h-348.6c0,0-32.3-40.5-44-40.8s-160.7,0-160.7,0h-256.6c0,0-88.9,0.4-96.4,0
		s-18,8.9-30.1,21.9s-16.5,18.6-16.5,18.6h-23v8.8h23c0,0,6.8,5,9,8.9s22.9,31.1,35.8,31.3c12.9,0.2,248.5,0,248.5,0h261.2
		c0,0,9.2,0.3,16.4-5.7c7.2-6,33.4-35.8,33.4-35.8h9.4L-1151.3,5089.5z"/>
	
		<linearGradient id="Path_233_1_" gradientUnits="userSpaceOnUse" x1="-4868.1025" y1="57.2311" x2="-4868.1025" y2="58.2311" gradientTransform="matrix(596.0139 0 0 78.4985 2899654.5 555.5422)">
		<stop  offset="0" style="stop-color:#3E3E3E;stop-opacity:0.922"/>
		<stop  offset="1" style="stop-color:#09004B"/>
	</linearGradient>
	<path id="Path_233" class="st4" d="M-1504.4,5086c0,0-29-33.6-34.1-35.6s-3.4-2.3-3.4-2.3h-513.3c0,0-7.8-0.2-13,4.5
		s-32.2,32.9-32.2,32.9v4.3c0,0,24,26.2,29.2,30.8c5.2,4.6,7,5.8,15.1,5.8h330.5l178.8,0.2c0,0,11.2-3.9,17.2-10.3
		s25.2-26.7,25.2-26.7L-1504.4,5086z"/>
	
		<linearGradient id="Path_234_1_" gradientUnits="userSpaceOnUse" x1="-4868.2319" y1="57.2311" x2="-4868.2319" y2="58.2311" gradientTransform="matrix(585.795 0 0 78.4985 2849336.25 443.5422)">
		<stop  offset="0" style="stop-color:#3E3E3E;stop-opacity:0.922"/>
		<stop  offset="1" style="stop-color:#09004B"/>
	</linearGradient>
	<path id="Path_234" class="st5" d="M-2156.6,4974c0,0-28.5-33.6-33.6-35.6s-3.4-2.3-3.4-2.3H-2698c0,0-7.6-0.2-12.8,4.5
		s-31.6,32.9-31.6,32.9v4.3c0,0,23.6,26.2,28.7,30.8c5.1,4.6,6.9,5.8,14.9,5.8h324.9l175.7,0.2c0,0,11-3.9,16.9-10.3
		s24.8-26.7,24.8-26.7L-2156.6,4974L-2156.6,4974z"/>
</g>
<rect x="391" y="32.4" class="st6" width="1188.2" height="110"/>
<text transform="matrix(1 0 0 1 391.0004 66.4105)"><tspan x="0" y="0" class="st0 st7 st8 cats">This is a question field This is a question field This is</tspan><tspan x="0" y="61.2" class="st0 st7 st8">This is a question field This is a question field This is</tspan></text>
<rect x="398" y="226" class="st6" width="792" height="200"/>
<text transform="matrix(1 0 0 1 398 250.0117)" class="st0 st7 st9">Answer Answer Answer Answer </text>
<rect x="398" y="337" class="st6" width="792" height="200"/>
<text transform="matrix(1 0 0 1 398 361.0117)" class="st0 st7 st9">Answer Answer Answer Answer </text>
<rect x="1043.8" y="226" class="st6" width="792" height="200"/>
<text transform="matrix(1 0 0 1 1043.7507 250.0117)" class="st0 st7 st9">Answer Answer Answer Answer </text>
<rect x="1043.8" y="339" class="st6" width="792" height="200"/>
<text transform="matrix(1 0 0 1 1043.7507 363.0117)" class="st0 st7 st9">Answer Answer Answer Answer </text>
</svg>
