<svg xmlns="http://www.w3.org/2000/svg" viewBox="7341.055 -4372.028 150.621 116.5">
  <defs>
    <style>
      .cls-1 {
        opacity: 0.193;
      }

      .cls-2 {
        fill: #fff;
      }

      .cls-3 {
        fill: #f8f8f8;
      }
    </style>
  </defs>
  <g id="ClassicATA" class="cls-1" transform="translate(7341.055 -4372.028)">
    <path id="Path_142" data-name="Path 142" class="cls-2" d="M7.4,72.383V63.6c.823-1.647.732-3.476,1.1-5.123,2.836-12.258,9.605-21.955,19.21-29.822C42.07,16.765,58.9,11.459,77.2,10.178a87.38,87.38,0,0,1,30,3.019c18.479,5.123,34.213,14.362,44.184,31.377a44.7,44.7,0,0,1,5.031,35.31c-3.293,12.258-10.52,21.955-20.4,29.547-11.892,9.148-25.522,14.179-40.342,16.192-1.921.274-3.934-.183-5.672.823H75.094a.585.585,0,0,0-.64-.457,46.757,46.757,0,0,1-10.063-1.372C46.553,120.958,31,113.457,19.2,99.095A52.062,52.062,0,0,1,9.23,80.067C8.406,77.506,8.406,74.853,7.4,72.383ZM122.479,27.468a15.265,15.265,0,0,0-5.672-2.927,6.384,6.384,0,0,0-2.47-1.281,87.2,87.2,0,0,0-52.691-3.293c-3.842.915-7.684,1.83-11.069,3.842a41.261,41.261,0,0,0-15.551,8.873c-1.555.183-2.378,1.372-3.385,2.287C20.3,45.031,13.438,57.2,15.359,72.932a34.705,34.705,0,0,0,6.495,16.923,23.282,23.282,0,0,0,5.489,7.135,22.119,22.119,0,0,0,4.574,4.665c9.971,8.324,21.406,13.264,34.121,15.643,19.027,3.568,37.323,1.372,54.7-7.227A53.472,53.472,0,0,0,137.39,97.814a10.885,10.885,0,0,0,3.568-4.3,3.849,3.849,0,0,0,1.83-2.287,15.172,15.172,0,0,0,3.568-6.22c.274-.366.64-.64.732-1.006a36.815,36.815,0,0,0,3.385-15.277c0-12.075-4.94-22.046-13.173-30.554-1.189-1.189-2.2-2.561-3.842-3.2-2.1-2.2-4.391-4.3-7.41-5.214C124.857,29.023,123.668,28.291,122.479,27.468Z" transform="translate(-7.4 -9.947)"/>
    <path id="Path_143" data-name="Path 143" class="cls-3" d="M118.128,25.932a12.953,12.953,0,0,1,5.672,2.927,8.183,8.183,0,0,0-7.684,5.123,13.662,13.662,0,0,0-.183,12.075c1.372,2.927,3.476,5.214,6.952,5.123,3.293-.091,5.4-2.287,6.678-5.214a14.1,14.1,0,0,0-2.1-14.911c3.019.915,5.214,3.019,7.41,5.214-.091.183-.366.366-.366.457a16.942,16.942,0,0,1-4.482,15.826l14.271,9.331c.823.549,1.464,1.006,1.464,2.2.549,7.41,1.189,14.819,1.83,22.321a15.173,15.173,0,0,1-3.568,6.22c-.732-8.69-1.555-17.381-2.287-25.98a2.775,2.775,0,0,0-1.372-2.287c-3.11-1.921-6.129-3.934-9.148-5.946-2.744-1.83-5.306-3.842-9.148-3.11a10.6,10.6,0,0,0-4.391,1.281c-3.751,2.47-7.593,4.94-11.435,7.318-2.561,1.647-2.653,2.561-.091,4.116a4.25,4.25,0,0,1,2.47,3.842c.457,7.044,1.281,14.088,1.738,21.223.091,1.464.549,1.738,1.921,1.738,9.971,0,19.942,0,29.822.091a10.885,10.885,0,0,1-3.568,4.3c-7.684-.091-15.368-.091-23.052-.183-4.665,0-4.665,0-4.208,4.574.183,1.647-.183,2.2-2.013,2.2-14.545-.091-29.09-.091-43.635-.091-1.83,0-3.568.091-5.4.091.091-1.921.091-3.751.366-5.672.183-1.281-.183-1.647-1.464-1.647-10.246,0-20.491-.091-30.737-.183A21.951,21.951,0,0,1,22.9,91.155c.823-9.056,1.647-18.2,2.378-27.26a3.365,3.365,0,0,1,1.83-2.927c4.208-2.561,8.233-5.306,12.349-7.867,1.006-.64,1.281-1.006.366-2.013a15.372,15.372,0,0,1-3.751-7.5c-.823-3.2-.091-6.4.091-9.514,4.482-4.208,9.788-6.861,15.551-8.873A11.023,11.023,0,0,1,56.2,28.585c5.123,6.129,5.123,16.009-.091,22.046-1.1,1.281-.915,1.647.366,2.47,3.934,2.47,7.867,5.123,11.709,7.684,1.281.823,2.744,1.464,2.47,3.659,2.744-1.738,5.123-3.293,7.593-4.848-6.129-6.312-6.038-16.009-2.653-21.68,2.287-3.751,5.489-6.129,10.063-5.946,4.391.091,7.41,2.561,9.331,6.312C98.461,45.142,98,51.82,93.521,58.132c-.823,1.189-.823,1.555.366,2.2,1.464.823,2.836,1.83,4.208,2.744.915.549,1.921,1.921,2.378-.457.091-.366.915-.64,1.372-1.006,4.482-2.927,9.056-5.763,13.63-8.69C107.608,44.868,109.529,30.78,118.128,25.932ZM86.02,101.675v.091h19.3c1.006,0,1.83.183,1.647-1.372-.915-8.965-1.647-17.93-2.378-26.894a2.979,2.979,0,0,0-1.647-2.561c-3.476-2.2-6.861-4.482-10.246-6.678-2.1-1.372-4.117-3.11-6.952-2.013a2.931,2.931,0,0,1-1.738-.183,2.564,2.564,0,0,0-2.287.366c-4.391,2.836-8.873,5.672-13.264,8.507a2.6,2.6,0,0,0-1.372,2.1c-.732,8.782-1.464,17.472-2.2,26.254-.183,1.83.091,2.561,2.2,2.47C73.487,101.492,79.8,101.675,86.02,101.675Zm-41.805-7.41v.091H59.766c1.006,0,1.647,0,1.738-1.281.549-6.952,1.189-14,1.738-20.948.091-1.921.549-3.2,2.378-4.208,2.1-1.1,2.013-2.744,0-4.116-3.2-2.1-6.4-4.117-9.514-6.22-2.561-1.738-5.031-3.293-8.507-2.744A11.888,11.888,0,0,0,42.568,56.3c-3.751,2.47-7.593,4.94-11.435,7.318a2.862,2.862,0,0,0-1.555,2.47c-.732,8.69-1.464,17.472-2.378,26.163-.183,1.83.457,2.1,2.1,2.1C34.243,94.174,39.183,94.266,44.214,94.266Zm11.892-54.7c-.274-3.659-1.189-7.044-4.208-9.514-2.561-2.1-5.58-2.1-7.776-.274-5.031,4.116-5.58,13.539-1.281,18.478a6.427,6.427,0,0,0,9.788.366C55.192,46.057,56.015,42.947,56.106,39.562Zm21.68,6.861c0,3.751,1.1,7.227,3.019,9.331a6.351,6.351,0,0,0,9.605.091c3.751-4.3,4.025-12.349.549-16.923-2.927-3.751-7.41-3.842-10.428-.274A12.435,12.435,0,0,0,77.787,46.423Z" transform="translate(-8.721 -11.247)"/>
  </g>
</svg>
