<svg xmlns="http://www.w3.org/2000/svg" viewBox="7524.723 -4372.335 160.021 122.429">
  <defs>
    <style>
      .cls-1 {
        opacity: 0.193;
      }

      .cls-2 {
        fill: #fff;
      }

      .cls-3 {
        fill: #fefefe;
      }
    </style>
  </defs>
  <g id="_5050" data-name="5050" class="cls-1" transform="translate(7524.723 -4372.335)">
    <path id="Path_135" data-name="Path 135" class="cls-2" d="M9.9,79.309V69.654c.933-1.679.746-3.591,1.166-5.41A56.575,56.575,0,0,1,31.074,33.322c13.9-11.24,29.989-17.07,47.713-18.982,1.912-.187,3.964.187,5.783-.84h9.794c.233.606.746.466,1.166.466a72.071,72.071,0,0,1,14.831,1.819c18.143,3.778,34.047,11.38,46.36,25.465a55.721,55.721,0,0,1,11.38,20.8c.886,2.938.886,6.063,1.819,8.955v7.835c-.466.14-.466.56-.466.933a44.309,44.309,0,0,1-5.27,17.49,61.6,61.6,0,0,1-20.8,22.853,91.465,91.465,0,0,1-42.4,14.971c-2.052.187-4.244-.233-6.2.84H84.99c-.14-.466-.56-.466-.933-.466A69.133,69.133,0,0,1,71.7,134.11c-19.309-3.638-36.286-11.52-49.205-26.631A50.4,50.4,0,0,1,11.812,87.331C11.066,84.672,10.553,82.014,9.9,79.309Zm7.975-5.084a42.381,42.381,0,0,0,2.752,14.692c5.177,13.2,14.831,22.34,27.191,28.823,19.216,10.074,39.644,12.36,60.818,8.209,16.091-3.171,30.316-9.934,41.416-22.2,13.012-14.365,15.391-33.021,6.2-49.438-5.69-10.121-14.178-17.35-24.439-22.714-17.117-8.955-35.4-11.66-54.429-9.188-16,2.052-30.689,7.6-42.909,18.423C24.312,49.786,18.249,60.839,17.875,74.225Z" transform="translate(-9.9 -13.5)"/>
    <path id="Path_136" data-name="Path 136" class="cls-3" d="M128.314,115.462a37.01,37.01,0,0,1-1.866,12.126c-1.679,4.477-4.664,6.716-8.768,6.716a9.078,9.078,0,0,1-8.862-6.669,37.272,37.272,0,0,1,.28-24.859c1.446-3.918,4.151-6.623,8.628-6.576s7.043,2.845,8.582,6.716C127.987,106.926,128.267,111.171,128.314,115.462Zm-5.037-.093c0-3.5.093-7-.979-10.354-.793-2.565-2.658-4.244-4.664-4.2-2.658.047-4.011,1.959-4.524,4.058a45.135,45.135,0,0,0-.047,21.174,4.585,4.585,0,0,0,4.711,3.731c2.565,0,3.638-1.726,4.477-3.731a12.006,12.006,0,0,0,.513-2.239A43.43,43.43,0,0,0,123.277,115.368Z" transform="translate(-61.619 -57.628)"/>
    <path id="Path_137" data-name="Path 137" class="cls-3" d="M219.011,98c1.866,0,3.731.14,5.6-.047,2.145-.233,2.612.606,2.565,2.612-.047,1.866-.466,2.612-2.472,2.472-2.8-.187-5.6.047-8.4-.093-1.539-.093-2.006.56-2.192,1.912a33.218,33.218,0,0,1-.84,4.291c-.42,1.539.373,1.586,1.446,1.353,8.115-1.726,13.526,2.565,13.759,10.914a15.5,15.5,0,0,1-2.052,8.488,10.1,10.1,0,0,1-10.774,5.224c-4.571-.793-7.462-3.731-8.349-8.488-.187-1.026-.56-2.145,1.119-2.1,1.306,0,2.985-1.632,3.638,1.026,1.026,4.058,2.658,5.364,6.017,5.084a5.13,5.13,0,0,0,4.664-3.964c1.026-3.545,1.446-7.276-1.259-10.354-1.679-1.912-4.011-1.866-6.25-1.306a4.491,4.491,0,0,0-2.705,2.1,1.667,1.667,0,0,1-1.912.84c-2.985-.373-3.032-.373-2.519-3.4.793-4.8,1.586-9.654,2.332-14.458.233-1.446.653-2.192,2.332-2.052C214.814,98.143,216.913,98,219.011,98Z" transform="translate(-115.144 -58.546)"/>
    <path id="Path_138" data-name="Path 138" class="cls-3" d="M59.479,111.2c9.281-4.524,16.231,3.265,15.018,12.966-.793,6.39-3.824,10.074-8.908,11.054a10.389,10.389,0,0,1-12.22-9.235c-.047-.513-.093-1.073.42-1.213a24.411,24.411,0,0,1,3.218-.56c1.866-.233,1.259,1.4,1.586,2.239.84,2.239,1.912,4.1,4.617,4.244a5.506,5.506,0,0,0,5.783-3.4,10.586,10.586,0,0,0,.326-8.815,5.89,5.89,0,0,0-10.214-1.492c-1.492,1.959-3.032.84-4.338.513s-.42-1.726-.28-2.612c.793-4.99,1.679-9.934,2.379-14.925.233-1.539.793-1.866,2.239-1.866,4.1.093,8.255.14,12.36,0C73.7,98,73.284,99.4,73.284,100.66c0,1.306.326,2.658-1.866,2.519-3.032-.187-6.063-.047-9.095-.047-.653,0-1.446-.233-1.586.84C60.319,106.3,59.9,108.682,59.479,111.2Z" transform="translate(-33.081 -58.638)"/>
    <path id="Path_139" data-name="Path 139" class="cls-3" d="M261,115.519c.14-4.664.28-9.328,2.332-13.665,2.379-4.99,7.183-7,11.707-4.9,3.032,1.4,4.664,4.058,5.5,7.136a43.785,43.785,0,0,1,1.166,15.951,27.076,27.076,0,0,1-1.679,8.162c-1.632,4.011-4.524,6.11-8.488,6.11-3.871.047-7.089-2.239-8.722-6.2C261.233,124.054,261.186,119.763,261,115.519Zm16.231-.187a42.892,42.892,0,0,0-.047-4.9c-.28-2.845-.466-5.737-2.472-8.069s-4.571-2.285-6.53.093a6.978,6.978,0,0,0-1.492,2.845,42.671,42.671,0,0,0,0,20.008c.7,2.985,2.565,4.384,4.99,4.337,2.239-.047,3.871-1.539,4.664-4.431A29.349,29.349,0,0,0,277.231,115.333Z" transform="translate(-143.887 -57.593)"/>
    <path id="Path_140" data-name="Path 140" class="cls-3" d="M178.365,113.11c.7,2.519-.653,2.752-2.8,2.845-2.8.187-2.519-1.306-2.705-3.218-.233-2.472.746-2.845,2.985-2.938C178.552,109.752,178.785,111.011,178.365,113.11Z" transform="translate(-96.839 -64.884)"/>
    <path id="Path_141" data-name="Path 141" class="cls-3" d="M178.367,159.112c.653,2.425-.466,2.8-2.752,2.938-3.125.233-2.565-1.539-2.752-3.4-.233-2.425.84-2.658,2.892-2.752C178.414,155.8,178.834,156.967,178.367,159.112Z" transform="translate(-96.841 -89.479)"/>
  </g>
</svg>
